<svg width="86" height="86" viewBox="0 0 86 86" fill="none" xmlns="http://www.w3.org/2000/svg">
<circle cx="20.5" cy="22.5" r="7.5" fill="white"/>
<circle cx="64.5" cy="22.5" r="7.5" fill="white"/>
<mask id="path-3-inside-1_199:50" fill="white">
<path d="M68.635 48.9396C71.5616 49.635 73.4122 52.5989 72.2311 55.3654C70.2133 60.0916 67.0754 64.2884 63.0556 67.5749C57.6221 72.0172 50.8788 74.5501 43.8642 74.7833C36.8497 75.0166 29.953 72.9372 24.2364 68.8656C20.0072 65.8533 16.5975 61.8743 14.2702 57.2926C12.908 54.6106 14.5576 51.5303 17.4315 50.642C20.3054 49.7538 23.3012 51.4215 24.8935 53.9736C26.3566 56.3187 28.2757 58.3688 30.5559 59.9929C34.3266 62.6785 38.8755 64.05 43.5022 63.8962C48.129 63.7424 52.5768 62.0717 56.1607 59.1416C58.328 57.3696 60.1066 55.1965 61.4108 52.7594C62.8301 50.1072 65.7084 48.2442 68.635 48.9396Z"/>
</mask>
<path d="M68.635 48.9396C71.5616 49.635 73.4122 52.5989 72.2311 55.3654C70.2133 60.0916 67.0754 64.2884 63.0556 67.5749C57.6221 72.0172 50.8788 74.5501 43.8642 74.7833C36.8497 75.0166 29.953 72.9372 24.2364 68.8656C20.0072 65.8533 16.5975 61.8743 14.2702 57.2926C12.908 54.6106 14.5576 51.5303 17.4315 50.642C20.3054 49.7538 23.3012 51.4215 24.8935 53.9736C26.3566 56.3187 28.2757 58.3688 30.5559 59.9929C34.3266 62.6785 38.8755 64.05 43.5022 63.8962C48.129 63.7424 52.5768 62.0717 56.1607 59.1416C58.328 57.3696 60.1066 55.1965 61.4108 52.7594C62.8301 50.1072 65.7084 48.2442 68.635 48.9396Z" stroke="white" stroke-width="24" mask="url(#path-3-inside-1_199:50)"/>
</svg>
