<svg width="99" height="86" viewBox="0 0 99 86" fill="none" xmlns="http://www.w3.org/2000/svg">
<mask id="path-1-inside-1_199:49" fill="white">
<path d="M68.635 48.9396C71.5616 49.635 73.4122 52.5989 72.2311 55.3654C70.2133 60.0916 67.0754 64.2884 63.0556 67.5749C57.6221 72.0172 50.8788 74.5501 43.8642 74.7833C36.8497 75.0166 29.953 72.9372 24.2364 68.8656C20.0072 65.8533 16.5975 61.8743 14.2702 57.2926C12.908 54.6106 14.5576 51.5303 17.4315 50.642C20.3054 49.7538 23.3012 51.4215 24.8935 53.9736C26.3566 56.3187 28.2757 58.3688 30.5559 59.9929C34.3266 62.6785 38.8755 64.05 43.5022 63.8962C48.129 63.7424 52.5768 62.0717 56.1607 59.1416C58.328 57.3696 60.1066 55.1965 61.4108 52.7594C62.8301 50.1072 65.7084 48.2442 68.635 48.9396Z"/>
</mask>
<path d="M68.635 48.9396C71.5616 49.635 73.4122 52.5989 72.2311 55.3654C70.2133 60.0916 67.0754 64.2884 63.0556 67.5749C57.6221 72.0172 50.8788 74.5501 43.8642 74.7833C36.8497 75.0166 29.953 72.9372 24.2364 68.8656C20.0072 65.8533 16.5975 61.8743 14.2702 57.2926C12.908 54.6106 14.5576 51.5303 17.4315 50.642C20.3054 49.7538 23.3012 51.4215 24.8935 53.9736C26.3566 56.3187 28.2757 58.3688 30.5559 59.9929C34.3266 62.6785 38.8755 64.05 43.5022 63.8962C48.129 63.7424 52.5768 62.0717 56.1607 59.1416C58.328 57.3696 60.1066 55.1965 61.4108 52.7594C62.8301 50.1072 65.7084 48.2442 68.635 48.9396Z" stroke="white" stroke-width="24" mask="url(#path-1-inside-1_199:49)"/>
<circle cx="20.5" cy="22.5" r="7.5" fill="white"/>
<circle cx="64.5" cy="22.5" r="7.5" fill="white"/>
<path d="M81.8024 78.5129H81.8037L83.5605 75.597L85.0255 75.919L85.0257 75.9182C85.0257 75.9181 85.0257 75.9181 85.0257 75.918L85.6106 73.2573C86.1999 72.9642 86.7705 72.6347 87.3189 72.2707L89.9209 73.0993C89.9211 73.0993 89.9213 73.0994 89.9214 73.0995C90.6391 73.3282 91.4134 73.3046 92.1159 73.0326C92.8184 72.7606 93.4067 72.2566 93.7832 71.6041C93.7833 71.604 93.7834 71.6039 93.7834 71.6038L97.0616 65.9246L97.0657 65.9175C97.8301 64.5764 97.5657 62.8854 96.4315 61.8399L96.4258 61.8347L94.4053 59.9915C94.4456 59.3346 94.4456 58.6759 94.4053 58.019L96.4258 56.1757L96.4297 56.1721C97.567 55.1272 97.8295 53.4329 97.0657 52.0929L97.0616 52.0859L93.7832 46.4064L93.7832 46.4063C93.4068 45.7544 92.8189 45.2507 92.117 44.9787C91.4151 44.7067 90.6413 44.6827 89.9239 44.9108L89.9235 44.9109L87.3182 45.7402C87.0616 45.5702 86.7995 45.4075 86.5323 45.2527C86.2294 45.0757 85.9216 44.9096 85.6101 44.7541L85.0261 42.0849C84.8657 41.3494 84.4588 40.6908 83.8728 40.2182L82.9312 41.3859L83.8728 40.2182C83.2867 39.7457 82.5568 39.4876 81.804 39.4868H81.8024L75.2457 39.4868L75.2441 39.4868C74.4913 39.4876 73.7614 39.7457 73.1753 40.2182C72.5893 40.6908 72.1824 41.3494 72.022 42.0849L72.0217 42.0866L71.4451 44.7459C71.1644 44.8835 70.8877 45.0289 70.6153 45.1817L70.606 45.187L70.5967 45.1923C70.3004 45.3643 70.0102 45.5458 69.7269 45.7355L67.1272 44.9076C67.127 44.9075 67.1268 44.9075 67.1266 44.9074C66.409 44.6787 65.6347 44.7023 64.9322 44.9742L65.419 46.2315L64.9322 44.9742C64.2297 45.2462 63.6414 45.7503 63.2648 46.4028C63.2648 46.4029 63.2647 46.403 63.2647 46.4031L59.9865 52.0823L59.9865 52.0823L59.9832 52.088C59.6108 52.7398 59.4708 53.4988 59.5863 54.2405C59.7017 54.9823 60.0657 55.6628 60.6186 56.1706L60.6236 56.1751L62.6427 58.0129C62.6025 58.6694 62.6025 59.3278 62.6428 59.9843L60.6223 61.8275L60.618 61.8314C60.0659 62.339 59.7024 63.0189 59.587 63.7599C59.4716 64.5009 59.6111 65.2592 59.9826 65.9106L59.9826 65.9107L59.9874 65.919L63.2719 71.593C63.2721 71.5934 63.2723 71.5937 63.2725 71.5941C63.6491 72.2462 64.2372 72.7499 64.9394 73.0218C65.6421 73.2939 66.4166 73.3174 67.1344 73.0885L69.7363 72.2599C70.2844 72.6237 70.8545 72.9532 71.4434 73.2465L72.0196 75.9138L72.0206 75.918C72.1817 76.6535 72.5894 77.3118 73.176 77.7838C73.7626 78.2557 74.4928 78.5129 75.2457 78.5129C75.2458 78.5129 75.2458 78.5129 75.2459 78.5129H81.8024ZM74.4826 54.9656C75.5526 53.8957 77.0037 53.2946 78.5168 53.2946C80.03 53.2946 81.4811 53.8957 82.551 54.9656C83.621 56.0356 84.222 57.4867 84.222 58.9998C84.222 60.5129 83.621 61.9641 82.551 63.034C81.4811 64.104 80.03 64.705 78.5168 64.705C77.0037 64.705 75.5526 64.104 74.4826 63.034C73.4127 61.9641 72.8116 60.5129 72.8116 58.9998C72.8116 57.4867 73.4127 56.0356 74.4826 54.9656Z" fill="white" stroke="#FF4646" stroke-width="3"/>
</svg>
